HIERARCHY
ROOT Hips
{
	OFFSET 0.000000 0.000000 0.000000
	CHANNELS 6 Xposition Yposition Zposition Zrotation Yrotation Xrotation 
	JOINT LHipJoint
	{
		OFFSET 0.000000 0.000000 0.000000
		CHANNELS 3 Zrotation Yrotation Xrotation
		JOINT LeftUpLeg
		{
			OFFSET 1.363060 -1.794630 0.839290
			CHANNELS 3 Zrotation Yrotation Xrotation
			JOINT LeftLeg
			{
				OFFSET 2.448110 -6.726130 0.000000
				CHANNELS 3 Zrotation Yrotation Xrotation
				JOINT LeftFoot
				{
					OFFSET 2.562200 -7.039590 0.000000
					CHANNELS 3 Zrotation Yrotation Xrotation
					JOINT LeftToeBase
					{
						OFFSET 0.157640 -0.433110 2.322550
						CHANNELS 3 Zrotation Yrotation Xrotation
						End Site
						{
							OFFSET 0.000000 0.000000 0.000000
						}
					}
				}
			}
		}
	}
	JOINT RHipJoint
	{
		OFFSET 0.000000 0.000000 0.000000
		CHANNELS 3 Zrotation Yrotation Xrotation
		JOINT RightUpLeg
		{
			OFFSET -1.305520 -1.794630 0.839290
			CHANNELS 3 Zrotation Yrotation Xrotation
			JOINT RightLeg
			{
				OFFSET -2.542530 -6.985550 0.000000
				CHANNELS 3 Zrotation Yrotation Xrotation
				JOINT RightFoot
				{
					OFFSET -2.568260 -7.056230 0.000000
					CHANNELS 3 Zrotation Yrotation Xrotation
					JOINT RightToeBase
					{
						OFFSET -0.164730 -0.452590 2.363150
						CHANNELS 3 Zrotation Yrotation Xrotation
						End Site
						{
							OFFSET 0.000000 0.000000 0.000000
						}
					}
				}
			}
		}
	}
	JOINT LowerBack
	{
		OFFSET 0.000000 0.000000 0.000000
		CHANNELS 3 Zrotation Yrotation Xrotation
		JOINT Spine
		{
			OFFSET 0.028270 2.035590 -0.193380
			CHANNELS 3 Zrotation Yrotation Xrotation
			JOINT Spine1
			{
				OFFSET 0.056720 2.048850 -0.042750
				CHANNELS 3 Zrotation Yrotation Xrotation
				JOINT Neck
				{
					OFFSET 0.000000 0.000000 0.000000
					CHANNELS 3 Zrotation Yrotation Xrotation
					JOINT Neck1
					{
						OFFSET -0.054170 1.746240 0.172020
						CHANNELS 3 Zrotation Yrotation Xrotation
						JOINT Head
						{
							OFFSET 0.104070 1.761360 -0.123970
							CHANNELS 3 Zrotation Yrotation Xrotation
							End Site
							{
								OFFSET 0.000000 0.000000 0.000000
							}
						}
					}
				}
				JOINT LeftShoulder
				{
					OFFSET 0.000000 0.000000 0.000000
					CHANNELS 3 Zrotation Yrotation Xrotation
					JOINT LeftArm
					{
						OFFSET 3.362410 1.200890 -0.311210
						CHANNELS 3 Zrotation Yrotation Xrotation
						JOINT LeftForeArm
						{
							OFFSET 4.983000 -0.000000 -0.000000
							CHANNELS 3 Zrotation Yrotation Xrotation
							JOINT LeftHand
							{
								OFFSET 3.483560 -0.000000 -0.000000
								CHANNELS 3 Zrotation Yrotation Xrotation
								JOINT LeftFingerBase
								{
									OFFSET 0.000000 0.000000 0.000000
									CHANNELS 3 Zrotation Yrotation Xrotation
									JOINT LeftHandIndex1
									{
										OFFSET 0.715260 -0.000000 -0.000000
										CHANNELS 3 Zrotation Yrotation Xrotation
										End Site
										{
											OFFSET 0.000000 0.000000 0.000000
										}
									}
								}
								JOINT LThumb
								{
									OFFSET 0.000000 0.000000 0.000000
									CHANNELS 3 Zrotation Yrotation Xrotation
									End Site
									{
										OFFSET 0.000000 0.000000 0.000000
									}
								}
							}
						}
					}
				}
				JOINT RightShoulder
				{
					OFFSET 0.000000 0.000000 0.000000
					CHANNELS 3 Zrotation Yrotation Xrotation
					JOINT RightArm
					{
						OFFSET -3.136600 1.374050 -0.404650
						CHANNELS 3 Zrotation Yrotation Xrotation
						JOINT RightForeArm
						{
							OFFSET -5.241900 -0.000000 -0.000000
							CHANNELS 3 Zrotation Yrotation Xrotation
							JOINT RightHand
							{
								OFFSET -3.444170 -0.000000 -0.000000
								CHANNELS 3 Zrotation Yrotation Xrotation
								JOINT RightFingerBase
								{
									OFFSET 0.000000 0.000000 0.000000
									CHANNELS 3 Zrotation Yrotation Xrotation
									JOINT RightHandIndex1
									{
										OFFSET -0.622530 -0.000000 -0.000000
										CHANNELS 3 Zrotation Yrotation Xrotation
										End Site
										{
											OFFSET 0.000000 0.000000 0.000000
										}
									}
								}
								JOINT RThumb
								{
									OFFSET 0.000000 0.000000 0.000000
									CHANNELS 3 Zrotation Yrotation Xrotation
									End Site
									{
										OFFSET 0.000000 0.000000 0.000000
									}
								}
							}
						}
					}
				}
			}
		}
	}
}
MOTION
Frames: 12
Frame Time: 0.008333
-1.890170 17.125089 3.250882 1.264379 -10.365266 6.105585 12.097848 1.689650 -2.990178 -18.490226 -11.902528 -20.475920 1.750221 12.995687 33.898248 -0.419192 9.782124 -7.313710 0.014500 -0.778000 -2.138100 -16.004196 -3.362674 -3.560250 37.129038 13.529846 -4.744945 0.712207 -7.718525 21.177380 0.334171 -12.649256 -16.364867 -0.080700 -1.832800 5.043800 15.681320 -3.001502 5.334800 2.178379 -3.977639 -4.302610 -6.650764 -2.180499 -1.561037 5.125176 8.916788 -11.075364 1.277948 12.918387 20.938842 -5.475000 7.177200 18.421900 12.705455 -9.480367 4.159923 -97.736385 8.253089 23.239394 65.304152 -57.659941 -27.515111 -0.738027 2.407010 8.269511 -0.192512 13.690880 0.179100 -7.125000 0.000000 0.000000 -22.822700 40.275500 2.828700 -9.982697 11.132040 4.080538 85.262208 -10.157332 0.482966 -22.245769 28.839755 -3.960037 -1.604395 -3.871152 4.582183 -15.802048 -13.062972 2.322600 7.125000 0.000000 0.000000 10.681000 -39.032000 1.591800 
-1.870513 17.118572 3.263595 1.060895 -10.228341 6.210724 12.089802 1.710168 -3.015216 -18.525489 -11.788712 -20.048698 1.779269 12.963229 33.955997 -0.397819 9.584228 -7.766262 0.019400 -0.898600 -2.469900 -16.004453 -3.370536 -3.552858 37.243028 13.476266 -4.841587 0.710524 -7.753412 21.238865 0.331759 -12.652184 -16.394623 -0.074700 -1.763600 4.852700 15.653006 -2.964286 5.317893 2.167697 -3.934802 -4.289459 -6.639331 -2.159088 -1.480055 5.130786 8.862029 -11.134884 1.342605 12.817035 20.960724 -5.430600 7.136600 18.420600 12.741994 -9.460594 4.177021 -97.963503 8.358053 23.185366 63.630701 -57.359761 -26.344056 -0.740413 2.494103 8.502516 -0.116872 13.909600 0.201600 -7.125000 0.000000 0.000000 -22.784200 40.410800 2.742100 -9.995660 11.111076 4.068568 85.387955 -9.973242 0.696321 -22.461824 29.138368 -4.033900 -1.589131 -3.887286 4.184832 -15.886645 -13.090043 2.340000 7.125000 0.000000 0.000000 10.621600 -39.057800 1.575900 
-1.850535 17.112483 3.276629 0.897206 -10.099328 6.302818 12.083991 1.733146 -3.034684 -18.602345 -11.699665 -19.568364 1.774084 12.879577 33.847134 -0.378126 9.469708 -8.322117 0.011800 -0.700000 -1.923600 -16.000511 -3.383163 -3.552504 37.307322 13.359069 -4.947233 0.704122 -7.788512 21.311656 0.318221 -12.579477 -16.449201 -0.074100 -1.756500 4.833200 15.555449 -2.938755 5.289403 2.164191 -3.912804 -4.279681 -6.563171 -2.147510 -1.424685 5.117129 8.800915 -11.102700 1.382939 12.702439 20.984081 -5.413300 7.095300 18.388500 12.785693 -9.443316 4.195668 -98.214939 8.501027 23.116474 61.916520 -57.004525 -25.157295 -0.728478 2.583173 8.682342 0.069561 14.084477 0.242900 -7.125000 0.000000 0.000000 -22.650200 40.509400 2.665100 -10.004781 11.087035 4.058455 85.477613 -9.785676 0.894709 -22.667490 29.417663 -4.108268 -1.568404 -3.923744 3.884099 -15.943316 -13.293606 2.395100 7.125000 0.000000 0.000000 10.603500 -39.238600 1.525300 
-1.828421 17.105218 3.289449 0.700892 -9.946564 6.387385 12.086652 1.747510 -3.046878 -18.619964 -11.752538 -19.130555 1.759449 12.798497 33.709973 -0.368282 9.456797 -8.730381 0.021700 -0.950200 -2.611800 -15.999183 -3.391034 -3.554880 37.406329 13.270525 -5.028481 0.696742 -7.827989 21.398830 0.308419 -12.545885 -16.519519 -0.071700 -1.727100 4.752100 15.504517 -2.916043 5.298525 2.153325 -3.882462 -4.269306 -6.501798 -2.132796 -1.350120 5.099647 8.744838 -11.156526 1.432671 12.595863 20.997539 -5.381700 7.053400 18.373400 12.802771 -9.422814 4.191205 -98.383365 8.621956 23.018209 60.214471 -56.578416 -23.985737 -0.718636 2.655790 8.801330 0.212370 14.158564 0.273300 -7.125000 0.000000 0.000000 -22.526200 40.525100 2.639400 -9.932252 11.080391 4.115247 85.422777 -10.063614 2.426487 -23.570755 30.376473 -4.381960 -1.444073 -4.037592 2.126041 -16.049205 -13.742971 2.513300 7.125000 0.000000 0.000000 10.577900 -39.630500 1.418200 
-1.806734 17.097740 3.302696 0.520071 -9.805877 6.479985 12.088082 1.766218 -3.064287 -18.667385 -11.742152 -18.650725 1.731855 12.687954 33.497070 -0.353235 9.418474 -9.192420 0.025400 -1.029500 -2.829900 -15.996681 -3.399698 -3.554204 37.484540 13.184065 -5.141634 0.686105 -7.877984 21.509092 0.295930 -12.494571 -16.596429 -0.069300 -1.698200 4.672300 15.439086 -2.885188 5.285644 2.142749 -3.846522 -4.257364 -6.464565 -2.115162 -1.281419 5.104002 8.682169 -11.179017 1.480463 12.476068 21.012170 -5.356800 7.009300 18.353300 12.836813 -9.404982 4.196277 -98.558715 8.753863 22.927443 58.608776 -56.132143 -22.893698 -0.715984 2.734681 8.897762 0.328659 14.305542 0.301600 -7.125000 0.000000 0.000000 -22.440200 40.601500 2.583000 -9.922143 11.065189 4.121471 85.504951 -9.983048 2.988559 -23.983446 30.862656 -4.519604 -1.397334 -4.078446 1.427510 -16.125237 -13.916771 2.565500 7.125000 0.000000 0.000000 10.542300 -39.786900 1.372200 
-1.784406 17.090155 3.314768 0.350836 -9.635081 6.595448 12.094336 1.781250 -3.077725 -18.716282 -11.788020 -18.195647 1.685816 12.559543 33.203283 -0.338916 9.413494 -9.646135 0.030100 -1.119600 -3.078000 -15.994827 -3.405090 -3.551725 37.543521 13.113621 -5.291670 0.673383 -7.937016 21.635268 0.285264 -12.466649 -16.691314 -0.067300 -1.674100 4.605800 15.360982 -2.857731 5.252241 2.132169 -3.817458 -4.248595 -6.428634 -2.101289 -1.220593 5.111355 8.614274 -11.196992 1.530585 12.346147 21.025688 -5.331300 6.961600 18.330500 12.872189 -9.388478 4.198458 -98.708939 8.890426 22.822169 57.057149 -55.650495 -21.847482 -0.718898 2.811880 8.936702 0.417608 14.458175 0.325500 -7.125000 0.000000 0.000000 -22.376800 40.682500 2.527200 -9.918429 11.051230 4.122201 85.612697 -9.862311 3.478130 -24.363137 31.318569 -4.649446 -1.356085 -4.110466 0.821681 -16.190860 -14.054172 2.608300 7.125000 0.000000 0.000000 10.509600 -39.912100 1.335100 
-1.761545 17.082570 3.325771 0.189665 -9.432716 6.734960 12.105050 1.791502 -3.086530 -18.760115 -11.900600 -17.776689 1.626417 12.422206 32.854696 -0.324800 9.435855 -10.100427 0.035400 -1.213700 -3.337100 -15.994221 -3.406512 -3.547110 37.587554 13.064509 -5.479990 0.658578 -8.006769 21.780285 0.277358 -12.469970 -16.802592 -0.065400 -1.650200 4.540000 15.275117 -2.834902 5.200214 2.122276 -3.796534 -4.243333 -6.399521 -2.092031 -1.172670 5.125955 8.542962 -11.208943 1.584298 12.208435 21.038157 -5.304400 6.911500 18.307000 12.911892 -9.374238 4.200061 -98.835459 9.032613 22.695467 55.571050 -55.141645 -20.854341 -0.729273 2.889320 8.916235 0.471809 14.634802 0.344100 -7.125000 0.000000 0.000000 -22.346300 40.782900 2.464400 -9.932105 11.037847 4.109138 85.773112 -9.637690 3.750880 -24.619477 31.658269 -4.740674 -1.333334 -4.117293 0.474786 -16.224479 -14.060746 2.616000 7.125000 0.000000 0.000000 10.483700 -39.922000 1.329100 
-1.738042 17.075519 3.335600 0.032032 -9.203173 6.902234 12.120236 1.796685 -3.090567 -18.794000 -12.080368 -17.393193 1.553579 12.274193 32.447171 -0.311040 9.485850 -10.559146 0.039600 -1.285200 -3.533900 -15.995793 -3.404212 -3.540378 37.622323 13.035182 -5.702583 0.644291 -8.081001 21.926548 0.273269 -12.505976 -16.918068 -0.063600 -1.627300 4.476800 15.187172 -2.813464 5.125443 2.113094 -3.780426 -4.241730 -6.379421 -2.085649 -1.138592 5.145182 8.464780 -11.209555 1.644040 12.057877 21.052755 -5.273600 6.856700 18.281700 12.956752 -9.362262 4.201734 -98.938921 9.180527 22.549866 54.148137 -54.609839 -19.912300 -0.747079 2.967456 8.840546 0.491536 14.837148 0.357500 -7.125000 0.000000 0.000000 -22.349100 40.903900 2.393700 -9.967444 11.023796 4.079226 85.995707 -9.289216 3.758997 -24.717853 31.850657 -4.780732 -1.332065 -4.097011 0.440643 -16.214304 -13.925521 2.583800 7.125000 0.000000 0.000000 10.472000 -39.805700 1.357900 
-1.713684 17.069109 3.344787 -0.122565 -8.955140 7.084760 12.139342 1.797253 -3.089674 -18.820840 -12.328182 -17.032886 1.471786 12.119841 32.000122 -0.298506 9.568033 -11.019292 0.043200 -1.341300 -3.688400 -15.999038 -3.399444 -3.534074 37.650537 13.014294 -5.936425 0.631757 -8.152697 22.061292 0.273262 -12.569988 -17.028002 -0.061700 -1.602500 4.408400 15.095287 -2.796189 5.039998 2.104924 -3.770839 -4.242417 -6.352296 -2.082764 -1.109236 5.158175 8.383418 -11.210061 1.707978 11.902886 21.070818 -5.238300 6.799400 18.258600 13.000241 -9.350513 4.199887 -99.031219 9.325902 22.373567 52.782526 -54.058691 -19.017406 -0.771343 3.045591 8.729274 0.476813 15.056932 0.365400 -7.125000 0.000000 0.000000 -22.383000 41.038700 2.318600 -9.999190 11.010851 4.051317 86.211564 -8.952692 3.835412 -24.855036 32.078491 -4.831664 -1.322810 -4.078814 0.353864 -16.183338 -13.801632 2.551500 7.125000 0.000000 0.000000 10.476600 -39.698800 1.386500 
-1.688365 17.063020 3.354082 -0.283487 -8.706697 7.263595 12.160499 1.794946 -3.085328 -18.835948 -12.625150 -16.675737 1.386681 11.961652 31.534669 -0.285796 9.672141 -11.501729 0.044200 -1.357400 -3.732700 -16.004011 -3.394101 -3.530277 37.686929 12.990355 -6.155380 0.621652 -8.216593 22.177376 0.276041 -12.648828 -17.123996 -0.059400 -1.573200 4.327400 15.008739 -2.779583 4.962908 2.097631 -3.760389 -4.243484 -6.324806 -2.079899 -1.089377 5.166406 8.298306 -11.200136 1.776240 11.742557 21.093757 -5.198100 6.739300 18.235800 13.045889 -9.340397 4.197649 -99.116110 9.473935 22.163086 51.467673 -53.488449 -18.164194 -0.792602 3.120535 8.616267 0.476873 15.250571 0.375000 -7.125000 0.000000 0.000000 -22.400200 41.152500 2.253600 -10.039637 10.997515 4.016615 86.447201 -8.561818 3.812643 -24.929429 32.244231 -4.859021 -1.319913 -4.043541 0.418189 -16.104452 -13.586301 2.491400 7.125000 0.000000 0.000000 10.504300 -39.510400 1.439600 
-1.661978 17.057358 3.363483 -0.448942 -8.459949 7.433645 12.183092 1.790514 -3.078687 -18.845389 -12.955982 -16.322833 1.302536 11.804975 31.070050 -0.270783 9.780818 -12.017241 0.043700 -1.349400 -3.710600 -16.009732 -3.389088 -3.530310 37.729328 12.956735 -6.351248 0.613994 -8.271058 22.273242 0.280719 -12.734597 -17.207410 -0.057200 -1.542600 4.243200 14.925595 -2.763517 4.895508 2.090352 -3.749249 -4.242577 -6.290691 -2.076316 -1.062377 5.165329 8.208908 -11.195009 1.845400 11.577900 21.120121 -5.155200 6.676300 18.215300 13.087580 -9.328372 4.191347 -99.192049 9.609377 21.919418 50.203198 -52.903290 -17.353452 -0.811365 3.192886 8.524938 0.481861 15.427176 0.384800 -7.125000 0.000000 0.000000 -22.409900 41.253200 2.195500 -10.068247 10.984339 3.990499 86.653200 -8.223359 3.953343 -25.106635 32.507260 -4.919594 -1.300803 -4.021512 0.337360 -16.016281 -13.451346 2.449500 7.125000 0.000000 0.000000 10.548000 -39.393000 1.476600 
-1.634522 17.051696 3.373311 -0.611024 -8.213665 7.584255 12.206682 1.785236 -3.070318 -18.863104 -13.306453 -15.969420 1.222226 11.653731 30.621778 -0.249836 9.871233 -12.592079 0.041500 -1.315200 -3.616600 -16.014259 -3.385270 -3.535513 37.769023 12.904306 -6.517914 0.606695 -8.317169 22.356631 0.285983 -12.821474 -17.285859 -0.054800 -1.510100 4.153500 14.838790 -2.747813 4.845125 2.081747 -3.735842 -4.239003 -6.250934 -2.071014 -1.027059 5.155258 8.113515 -11.194307 1.915325 11.406212 21.151340 -5.110200 6.609600 18.197500 13.123687 -9.314260 4.180390 -99.254789 9.731772 21.648766 48.989392 -52.306302 -16.584644 -0.827246 3.262118 8.476220 0.487233 15.584630 0.394100 -7.125000 0.000000 0.000000 -22.415400 41.339500 2.145300 -10.081973 10.972312 3.975785 86.825497 -7.963133 4.285910 -25.416770 32.894081 -5.023929 -1.262465 -4.015158 0.076467 -15.920246 -13.411785 2.429400 7.125000 0.000000 0.000000 10.608200 -39.360100 1.493900 
